<?xml version="1.0" standalone="no"?>
<!DOCTYPE svg PUBLIC "-//W3C//DTD SVG 20010904//EN"
 "http://www.w3.org/TR/2001/REC-SVG-20010904/DTD/svg10.dtd">
<svg version="1.0" xmlns="http://www.w3.org/2000/svg"
 width="517.000000pt" height="151.000000pt" viewBox="0 0 517.000000 151.000000"
 preserveAspectRatio="xMidYMid meet">
<metadata>
Created by potrace 1.16, written by Peter Selinger 2001-2019
</metadata>
<g transform="translate(0.000000,151.000000) scale(0.100000,-0.100000)"
fill="#000000" stroke="none">
<path d="M1892 1502 l-72 -3 2 -572 3 -572 88 -3 87 -3 -2 577 c-3 505 -5 577
-18 578 -8 1 -48 0 -88 -2z"/>
<path d="M2718 1502 l-78 -3 -2 -162 c-1 -89 -1 -204 0 -256 1 -88 0 -93 -16
-78 -38 35 -106 57 -177 57 -102 0 -158 -23 -231 -96 -51 -51 -65 -72 -83
-129 -49 -158 -13 -316 97 -420 82 -77 239 -99 339 -48 29 14 53 30 53 35 0 4
5 8 11 8 7 0 10 -12 7 -30 l-5 -31 86 3 86 3 3 569 c1 314 -1 572 -5 575 -5 3
-43 5 -85 3z m-183 -624 c16 -7 38 -19 48 -28 30 -25 57 -99 57 -154 0 -59
-27 -134 -52 -142 -10 -3 -18 -10 -18 -15 0 -14 -63 -39 -97 -39 -97 0 -163
54 -183 149 -20 95 10 177 82 221 34 21 122 25 163 8z"/>
<path d="M2964 1501 c-2 -2 -4 -262 -4 -578 l0 -573 85 0 85 0 0 578 0 577
-81 0 c-44 0 -83 -2 -85 -4z"/>
<path d="M0 875 l0 -525 171 0 c139 0 185 4 251 20 90 23 109 33 156 74 57 52
85 130 84 229 -1 52 -21 137 -33 137 -5 0 -9 5 -9 11 0 14 -41 53 -88 85 l-32
22 23 29 c78 94 74 255 -8 350 -65 76 -130 93 -343 93 l-172 0 0 -525z m351
344 c11 -5 17 -14 14 -20 -4 -5 -1 -8 6 -7 18 4 32 -60 25 -116 -6 -52 -31
-90 -53 -81 -8 2 -12 1 -9 -4 8 -12 -30 -21 -96 -21 l-58 0 0 130 0 130 76 0
c41 0 84 -5 95 -11z m84 -439 c32 -30 49 -83 41 -131 -15 -91 -62 -119 -201
-119 l-95 0 0 141 0 142 115 -5 c103 -4 117 -7 140 -28z"/>
<path d="M1533 1378 c-37 -18 -56 -82 -38 -126 20 -46 56 -66 111 -59 66 7 84
28 84 98 0 52 -3 60 -29 78 -32 23 -91 27 -128 9z"/>
<path d="M3424 1034 c-70 -34 -106 -72 -145 -151 -32 -65 -33 -71 -33 -188 1
-114 2 -123 32 -181 17 -34 47 -76 66 -94 19 -19 32 -38 29 -43 -3 -6 -1 -7 4
-4 6 4 31 -2 54 -13 68 -30 178 -27 249 7 30 14 60 25 65 24 6 -2 7 0 3 4 -4
4 0 14 8 22 69 69 104 164 104 279 0 124 -35 221 -105 288 -16 16 -23 25 -15
21 9 -5 12 -4 7 1 -5 5 -9 8 -10 6 -1 -2 -27 8 -57 22 -78 36 -184 36 -256 0z
m186 -144 c11 -6 31 -30 45 -55 23 -39 27 -56 27 -135 0 -70 -4 -98 -19 -127
-11 -21 -24 -36 -28 -33 -4 3 -11 -4 -15 -14 -11 -32 -83 -37 -131 -9 -97 58
-98 306 0 366 29 19 93 22 121 7z"/>
<path d="M4108 1046 c-20 -8 -47 -21 -60 -30 -14 -9 -28 -13 -33 -9 -4 5 -5 3
-2 -3 4 -6 -2 -19 -12 -28 -34 -31 -64 -116 -63 -181 0 -61 32 -146 66 -175
13 -10 13 -15 -5 -33 -45 -49 -49 -148 -7 -187 l21 -20 -29 -22 c-16 -13 -32
-22 -36 -20 -5 1 -7 -1 -6 -5 1 -5 -3 -18 -10 -29 -36 -65 -21 -168 31 -216
69 -64 99 -73 247 -73 118 0 141 3 180 22 61 29 82 50 108 104 30 62 30 142
-1 200 -13 24 -23 47 -23 51 1 3 -3 10 -8 15 -5 5 -6 3 -2 -4 9 -17 -3 -16
-23 0 -26 22 -120 48 -203 56 -101 11 -146 39 -120 77 4 6 42 11 89 11 65 0
91 5 125 23 123 63 175 206 123 333 -6 14 -1 17 34 17 l41 0 0 70 0 70 -44 0
c-25 0 -57 -5 -73 -11 -15 -6 -30 -11 -33 -11 -3 0 -8 -5 -11 -10 -5 -7 -19
-4 -40 7 -45 23 -172 30 -221 11z m167 -153 c24 -32 35 -96 24 -137 -21 -75
-117 -98 -166 -41 -18 21 -23 38 -23 83 0 62 17 97 54 113 32 13 96 3 111 -18z
m-22 -588 c137 -15 145 -126 11 -156 -47 -11 -62 -10 -109 5 -30 9 -59 25 -65
36 -32 60 20 136 85 124 11 -1 46 -6 78 -9z"/>
<path d="M4730 1038 c-137 -62 -194 -225 -125 -358 16 -30 28 -58 27 -63 -1
-4 1 -6 5 -6 24 4 24 -4 -2 -31 -24 -25 -28 -38 -29 -88 -1 -45 4 -64 22 -86
l22 -28 -40 -37 c-51 -46 -71 -112 -51 -168 37 -105 101 -149 237 -161 132
-11 223 8 293 60 55 41 78 118 66 213 -12 96 -98 156 -244 171 -99 10 -153 25
-147 41 3 8 1 11 -4 8 -12 -7 -13 15 -2 31 4 6 44 11 92 11 103 1 126 10 183
65 59 58 80 116 75 204 -2 38 -8 77 -12 87 -7 15 -3 17 33 17 l41 0 0 70 0 70
-45 0 c-26 0 -63 -9 -85 -20 -38 -20 -39 -20 -82 0 -59 27 -166 26 -228 -2z
m154 -128 c50 -19 75 -93 54 -160 -32 -100 -164 -91 -188 13 -8 39 3 100 23
126 23 28 69 37 111 21z m8 -605 c69 -7 94 -22 99 -60 11 -78 -86 -123 -196
-91 -63 19 -80 44 -69 103 5 27 14 38 38 49 17 7 38 11 46 9 8 -2 45 -6 82
-10z"/>
<path d="M774 1036 c-3 -8 -4 -117 -2 -243 5 -252 14 -301 67 -361 16 -18 56
-46 87 -63 51 -25 68 -29 143 -29 63 0 97 6 129 20 23 10 42 17 42 14 0 -16
84 87 102 125 20 43 22 65 26 299 l4 252 -91 0 -91 0 0 -217 c0 -120 -5 -235
-10 -255 -20 -70 -138 -108 -174 -56 -9 12 -16 18 -16 13 0 -6 -9 4 -21 22
-18 29 -20 49 -22 260 l-2 228 -83 3 c-65 2 -83 0 -88 -12z"/>
<path d="M1510 1048 c0 -2 -1 -158 -3 -348 l-2 -345 88 -3 87 -3 0 351 0 350
-85 0 c-47 0 -85 -1 -85 -2z"/>
</g>
</svg>
