<?xml version="1.0" standalone="no"?>
<!DOCTYPE svg PUBLIC "-//W3C//DTD SVG 20010904//EN"
 "http://www.w3.org/TR/2001/REC-SVG-20010904/DTD/svg10.dtd">
<svg version="1.0" xmlns="http://www.w3.org/2000/svg"
 width="760.000000pt" height="530.000000pt" viewBox="0 0 760.000000 530.000000"
 preserveAspectRatio="xMidYMid meet">
<metadata>
Created by potrace 1.16, written by Peter Selinger 2001-2019
</metadata>
<g transform="translate(0.000000,530.000000) scale(0.100000,-0.100000)"
fill="#000000" stroke="none">
<path d="M3405 3674 c-60 -14 -181 -70 -230 -108 -126 -97 -208 -226 -239
-376 -29 -139 -13 -275 49 -401 33 -69 119 -189 136 -189 5 0 9 -4 9 -9 0 -6
-12 -6 -32 0 -18 5 -78 9 -133 9 -203 0 -382 -90 -497 -247 -86 -117 -117
-203 -125 -344 -23 -403 315 -714 717 -661 48 7 109 22 136 34 142 62 260 170
326 297 l36 71 42 -77 c40 -72 126 -170 195 -220 35 -26 137 -76 192 -94 50
-17 1082 -25 1193 -10 228 32 422 195 501 423 33 92 33 293 2 393 -43 134
-139 261 -255 339 -75 49 -222 96 -303 96 -36 0 -65 4 -65 9 0 5 3 11 8 13 4
2 26 26 49 53 100 120 148 302 125 479 -11 86 -19 111 -70 216 -48 99 -213
245 -301 267 -14 3 -37 13 -51 22 -21 14 -101 16 -710 18 -377 0 -694 -1 -705
-3z m265 -133 c140 -41 249 -126 319 -251 31 -54 61 -174 61 -240 0 -66 -30
-186 -61 -240 -29 -52 -90 -123 -136 -159 -131 -103 -277 -134 -430 -91 -93
26 -165 69 -230 136 -109 115 -149 225 -140 391 4 92 8 109 42 178 111 223
355 340 575 276z m-595 -1073 c117 -22 238 -104 310 -213 56 -84 79 -165 79
-280 0 -159 -42 -256 -162 -373 -91 -88 -200 -131 -332 -132 -140 0 -266 54
-361 153 -53 56 -65 74 -99 147 -46 98 -52 271 -13 381 65 180 237 309 443
332 29 3 53 0 135 -15z m1187 1 c125 -27 248 -121 319 -243 194 -336 -46 -757
-430 -756 -90 0 -176 21 -221 53 -13 9 -30 17 -38 17 -28 0 -159 145 -190 211
-77 162 -65 363 29 504 64 95 181 181 289 211 58 16 174 17 242 3z m-585 -81
c-25 -29 -58 -78 -74 -109 -16 -30 -33 -61 -37 -67 -5 -8 -18 9 -38 45 -16 32
-50 84 -73 115 l-44 57 102 -5 c56 -3 122 -1 147 4 25 6 49 10 53 11 5 1 -12
-23 -36 -51z"/>
<path d="M3495 3449 c-120 -26 -202 -73 -259 -150 -67 -90 -80 -130 -80 -249
0 -119 15 -165 81 -249 90 -116 257 -179 384 -146 203 52 325 202 323 400 0
98 -26 167 -91 248 -31 37 -59 67 -63 67 -4 0 -23 11 -42 24 -68 46 -182 71
-253 55z m145 -135 c102 -30 190 -154 190 -267 0 -109 -92 -232 -196 -263
-190 -55 -364 72 -364 266 0 198 174 322 370 264z"/>
<path d="M3471 3213 c-19 -10 -48 -35 -65 -56 -28 -35 -31 -45 -31 -111 0 -66
3 -76 30 -108 85 -102 219 -94 293 16 44 67 44 122 -1 191 -17 27 -46 56 -62
64 -48 23 -125 25 -164 4z m119 -123 c26 -26 25 -50 0 -78 -37 -40 -100 -17
-100 36 0 56 61 81 100 42z"/>
<path d="M2863 2362 c-113 -31 -207 -112 -264 -229 -21 -42 -24 -63 -24 -158
0 -100 3 -115 28 -168 70 -145 214 -237 370 -237 41 0 83 6 98 14 14 7 38 16
54 20 32 8 97 55 133 95 98 110 132 250 93 380 -26 85 -45 118 -100 176 -53
55 -111 89 -188 109 -75 20 -120 19 -200 -2z m219 -130 c55 -24 110 -80 140
-140 29 -60 30 -178 3 -236 -44 -93 -159 -166 -260 -166 -60 0 -145 33 -187
73 -60 58 -81 103 -86 193 -4 73 -2 88 21 136 41 86 104 137 202 162 37 9 123
-2 167 -22z"/>
<path d="M2910 2148 c-144 -40 -164 -267 -30 -335 75 -39 158 -26 217 32 25
24 53 94 53 132 0 65 -68 156 -130 173 -42 12 -63 11 -110 -2z m77 -114 c26
-7 43 -51 32 -82 -5 -12 -20 -27 -33 -33 -58 -27 -103 54 -56 101 22 22 25 23
57 14z"/>
<path d="M4044 2362 c-313 -85 -397 -502 -142 -700 88 -69 163 -94 263 -90 66
3 92 9 150 37 343 165 296 660 -71 755 -76 20 -121 19 -200 -2z m221 -128 c50
-23 111 -83 137 -134 18 -36 23 -61 23 -125 0 -98 -26 -158 -91 -213 -143
-119 -334 -86 -431 75 -25 43 -28 57 -28 138 0 80 3 95 27 136 62 102 156 153
271 144 32 -3 74 -12 92 -21z"/>
<path d="M4094 2149 c-18 -5 -50 -27 -72 -49 -45 -46 -58 -92 -47 -166 16
-111 151 -177 253 -125 117 60 137 209 40 300 -49 46 -107 60 -174 40z m90
-124 c22 -22 28 -49 17 -78 -12 -32 -43 -42 -78 -25 -39 18 -45 78 -11 102 28
20 52 20 72 1z"/>
</g>
</svg>
